<?xml version="1.0" encoding="UTF-8"?>
<svg id="Layer_2" data-name="Layer 2" xmlns="http://www.w3.org/2000/svg" viewBox="0 0 160 44.64">
  <g id="Layer_1-2" data-name="Layer 1">
    <g>
      <path d="M5.01,28.32h13.1v4.61H4.61c-3.34,0-4.61-1.72-4.61-4.51V.06H5.01V28.32Z" style="fill: #101b28;"/>
      <path d="M117.7,20.79c0-6.92,4.96-12.56,12.17-12.56,7.26,0,11.78,5.25,11.78,11.97v1.96s-19.23,0-19.23,0c.54,4.12,3.68,7.02,8,7.02,2.94,0,5.59-1.28,7.02-3.93l3.73,1.91c-2.11,4.12-5.99,6.33-10.7,6.33-7.31,0-12.76-5.3-12.76-12.71Zm19.09-1.77c-.2-3.83-2.99-6.43-6.97-6.43-4.07,0-6.72,2.85-7.21,6.43h14.18Z" style="fill: #f50068;"/>
      <path d="M150.76,.11V32.96h-4.86V.11h4.86Z" style="fill: #f50068;"/>
      <path d="M160,.07V32.92h-4.86V.07h4.86Z" style="fill: #f50068;"/>
      <path d="M40.95,15.95c-1.35,0-2.45,1.1-2.45,2.45v2.4c0,4.42-2.75,7.95-6.97,7.95s-6.72-3.09-6.72-7.61V8.92h-4.81v12.46c0,7.07,3.58,11.92,10.94,11.92,3.63,0,6.18-1.62,7.61-4.32v2.11c0,5.2-2.65,9.03-7.75,9.03-3.29,0-5.99-1.52-7.36-4.12l-4.02,2.21c2.16,4.27,6.38,6.43,11.48,6.43,7.8,0,12.51-5.54,12.51-13.59v-12.65c0-1.35-1.1-2.45-2.45-2.45h0Z" style="fill: #101b28;"/>
      <path d="M40.85,6.71c-7.75,0-11.92,5.5-11.92,12.51v1.69c0,1.34,1.09,2.43,2.43,2.43h0c1.34,0,2.43-1.09,2.43-2.43v-1.2c0-4.46,2.36-8.34,7.07-8.34s7.26,3.88,7.26,8.39v13.2h4.86v-13.79c0-6.97-4.27-12.46-12.12-12.46Z" style="fill: #101b28;"/>
      <path d="M77.84,11.36s0,0,0,0v-.03c-.07-.26-.54-1.91-2.39-2.43-1.14,.32-2.17,.95-2.97,1.85l-5.84,6.62c-.49,.49-.88,1.03-1.13,1.61h-2.94V0h-4.85V32.99h4.85v-10.18h2.89c.24,.64,.64,1.22,1.13,1.81l7.63,8.37h5.97l-10.28-11.35c-.29-.24-.44-.44-.44-.69s.15-.44,.44-.69l7.93-8.9h0Z" style="fill: #101b28;"/>
      <path d="M111.42,8.66l-4.26,19.28c-.15,.59-.39,.88-.83,.88-.49,0-.73-.29-.88-.78l-3.87-15.66c-.73-2.94-2.35-4.31-4.89-4.31s-4.21,1.42-4.94,4.36l-3.92,15.61c-.1,.44-.39,.78-.78,.78-.54,0-.73-.29-.88-.88l-3.48-15.22c-.35-1.55-1.38-2.81-2.73-3.49-.05-.03-.1-.05-.16-.08-.67-.31-1.41-.49-2.19-.49h-.51c-.57,0-1.12,.09-1.66,.24,1.85,.52,2.28,2.16,2.39,2.43,.07,.18,4.08,17.55,4.08,17.55,.69,2.94,2.74,4.41,5.14,4.41s4.16-1.47,4.85-4.36l3.96-15.86c.1-.49,.34-.78,.78-.78,.49,0,.73,.29,.88,.78l3.92,15.86c.68,2.89,2.35,4.36,4.85,4.36s4.4-1.47,5.09-4.41l4.55-20.21h-4.5Z" style="fill: #f50068;"/>
    </g>
  </g>
</svg>